<?xml version="1.0" encoding="utf-8" ?>
<svg baseProfile="full" height="100%" version="1.1" width="100%" xmlns="http://www.w3.org/2000/svg" xmlns:ev="http://www.w3.org/2001/xml-events" xmlns:xlink="http://www.w3.org/1999/xlink"><defs /><circle cx="50.000000%" cy="15.000000%" fill="rgb(66, 206, 183)" r="1.875000%" stroke="black" stroke-width="1" /><circle cx="37.500000%" cy="45.000000%" fill="rgb(66, 206, 183)" r="1.875000%" stroke="black" stroke-width="1" /><circle cx="62.500000%" cy="45.000000%" fill="rgb(66, 206, 183)" r="1.875000%" stroke="black" stroke-width="1" /><circle cx="25.000000%" cy="75.000000%" fill="rgb(66, 206, 183)" r="1.875000%" stroke="black" stroke-width="1" /><circle cx="50.000000%" cy="75.000000%" fill="rgb(66, 206, 183)" r="1.875000%" stroke="black" stroke-width="1" /><circle cx="75.000000%" cy="75.000000%" fill="rgb(66, 206, 183)" r="1.875000%" stroke="black" stroke-width="1" /><line stroke="black" stroke-width="1" x1="1.000000%" x2="1.000000%" y1="84.375000%" y2="100.000000%" /><line stroke="black" stroke-width="1" x1="25.000000%" x2="25.000000%" y1="84.375000%" y2="100.000000%" /><text style="font-size:200%" x="6.750000%" y="95.000000%">25.0%</text><line stroke="black" stroke-width="1" x1="25.000000%" x2="25.000000%" y1="84.375000%" y2="100.000000%" /><line stroke="black" stroke-width="1" x1="50.000000%" x2="50.000000%" y1="84.375000%" y2="100.000000%" /><text style="font-size:200%" x="31.250000%" y="95.000000%">25.0%</text><line stroke="black" stroke-width="1" x1="50.000000%" x2="50.000000%" y1="84.375000%" y2="100.000000%" /><line stroke="black" stroke-width="1" x1="75.000000%" x2="75.000000%" y1="84.375000%" y2="100.000000%" /><text style="font-size:200%" x="56.250000%" y="95.000000%">25.0%</text><line stroke="black" stroke-width="1" x1="75.000000%" x2="75.000000%" y1="84.375000%" y2="100.000000%" /><line stroke="black" stroke-width="1" x1="99.000000%" x2="99.000000%" y1="84.375000%" y2="100.000000%" /><text style="font-size:200%" x="80.750000%" y="95.000000%">25.0%</text><line stroke="black" stroke-width="1" x1="48.125000%" x2="39.375000%" y1="16.875000%" y2="43.125000%" /><line stroke="black" stroke-width="1" x1="51.875000%" x2="60.625000%" y1="16.875000%" y2="43.125000%" /><text x="56.250000%" y="30.000000%">0.50</text><line stroke="black" stroke-width="1" x1="35.625000%" x2="26.875000%" y1="46.875000%" y2="73.125000%" /><line stroke="black" stroke-width="1" x1="39.375000%" x2="48.125000%" y1="46.875000%" y2="73.125000%" /><text x="43.750000%" y="60.000000%">0.29</text><line stroke="black" stroke-width="1" x1="60.625000%" x2="51.875000%" y1="46.875000%" y2="73.125000%" /><line stroke="black" stroke-width="1" x1="64.375000%" x2="73.125000%" y1="46.875000%" y2="73.125000%" /><text x="68.750000%" y="60.000000%">0.71</text><line stroke="black" stroke-width="1" x1="23.125000%" x2="14.875000%" y1="76.875000%" y2="88.125000%" /><line stroke="black" stroke-width="1" x1="26.875000%" x2="35.625000%" y1="76.875000%" y2="88.125000%" /><text x="31.250000%" y="82.500000%">0.29</text><line stroke="black" stroke-width="1" x1="48.125000%" x2="39.375000%" y1="76.875000%" y2="88.125000%" /><line stroke="black" stroke-width="1" x1="51.875000%" x2="60.625000%" y1="76.875000%" y2="88.125000%" /><text x="56.250000%" y="82.500000%">0.50</text><line stroke="black" stroke-width="1" x1="73.125000%" x2="64.375000%" y1="76.875000%" y2="88.125000%" /><line stroke="black" stroke-width="1" x1="76.875000%" x2="85.125000%" y1="76.875000%" y2="88.125000%" /><text x="81.000000%" y="82.500000%">0.71</text></svg>