<?xml version="1.0" encoding="utf-8" ?>
<svg baseProfile="full" height="100%" version="1.1" width="100%" xmlns="http://www.w3.org/2000/svg" xmlns:ev="http://www.w3.org/2001/xml-events" xmlns:xlink="http://www.w3.org/1999/xlink"><defs /><circle cx="50.000000%" cy="9.000000%" fill="rgb(66, 206, 183)" r="1.125000%" stroke="black" stroke-width="1" /><circle cx="41.666667%" cy="27.000000%" fill="rgb(66, 206, 183)" r="1.125000%" stroke="black" stroke-width="1" /><circle cx="58.333333%" cy="27.000000%" fill="rgb(66, 206, 183)" r="1.125000%" stroke="black" stroke-width="1" /><circle cx="33.333333%" cy="45.000000%" fill="rgb(66, 206, 183)" r="1.125000%" stroke="black" stroke-width="1" /><circle cx="50.000000%" cy="45.000000%" fill="rgb(66, 206, 183)" r="1.125000%" stroke="black" stroke-width="1" /><circle cx="66.666667%" cy="45.000000%" fill="rgb(66, 206, 183)" r="1.125000%" stroke="black" stroke-width="1" /><circle cx="25.000000%" cy="63.000000%" fill="rgb(66, 206, 183)" r="1.125000%" stroke="black" stroke-width="1" /><circle cx="41.666667%" cy="63.000000%" fill="rgb(66, 206, 183)" r="1.125000%" stroke="black" stroke-width="1" /><circle cx="58.333333%" cy="63.000000%" fill="rgb(66, 206, 183)" r="1.125000%" stroke="black" stroke-width="1" /><circle cx="75.000000%" cy="63.000000%" fill="rgb(66, 206, 183)" r="1.125000%" stroke="black" stroke-width="1" /><circle cx="16.666667%" cy="81.000000%" fill="rgb(66, 206, 183)" r="1.125000%" stroke="black" stroke-width="1" /><circle cx="33.333333%" cy="81.000000%" fill="rgb(66, 206, 183)" r="1.125000%" stroke="black" stroke-width="1" /><circle cx="50.000000%" cy="81.000000%" fill="rgb(66, 206, 183)" r="1.125000%" stroke="black" stroke-width="1" /><circle cx="66.666667%" cy="81.000000%" fill="rgb(66, 206, 183)" r="1.125000%" stroke="black" stroke-width="1" /><circle cx="83.333333%" cy="81.000000%" fill="rgb(66, 206, 183)" r="1.125000%" stroke="black" stroke-width="1" /><line stroke="black" stroke-width="1" x1="1.000000%" x2="1.000000%" y1="86.625000%" y2="100.000000%" /><line stroke="black" stroke-width="1" x1="16.666667%" x2="16.666667%" y1="86.625000%" y2="100.000000%" /><text style="font-size:200%" x="4.666667%" y="95.000000%">16.7%</text><line stroke="black" stroke-width="1" x1="16.666667%" x2="16.666667%" y1="86.625000%" y2="100.000000%" /><line stroke="black" stroke-width="1" x1="33.333333%" x2="33.333333%" y1="86.625000%" y2="100.000000%" /><text style="font-size:200%" x="20.833333%" y="95.000000%">16.7%</text><line stroke="black" stroke-width="1" x1="33.333333%" x2="33.333333%" y1="86.625000%" y2="100.000000%" /><line stroke="black" stroke-width="1" x1="50.000000%" x2="50.000000%" y1="86.625000%" y2="100.000000%" /><text style="font-size:200%" x="37.500000%" y="95.000000%">16.7%</text><line stroke="black" stroke-width="1" x1="50.000000%" x2="50.000000%" y1="86.625000%" y2="100.000000%" /><line stroke="black" stroke-width="1" x1="66.666667%" x2="66.666667%" y1="86.625000%" y2="100.000000%" /><text style="font-size:200%" x="54.166667%" y="95.000000%">16.7%</text><line stroke="black" stroke-width="1" x1="66.666667%" x2="66.666667%" y1="86.625000%" y2="100.000000%" /><line stroke="black" stroke-width="1" x1="83.333333%" x2="83.333333%" y1="86.625000%" y2="100.000000%" /><text style="font-size:200%" x="70.833333%" y="95.000000%">16.7%</text><line stroke="black" stroke-width="1" x1="83.333333%" x2="83.333333%" y1="86.625000%" y2="100.000000%" /><line stroke="black" stroke-width="1" x1="99.000000%" x2="99.000000%" y1="86.625000%" y2="100.000000%" /><text style="font-size:200%" x="87.000000%" y="95.000000%">16.7%</text><line stroke="black" stroke-width="1" x1="48.875000%" x2="42.791667%" y1="10.125000%" y2="25.875000%" /><line stroke="black" stroke-width="1" x1="51.125000%" x2="57.208333%" y1="10.125000%" y2="25.875000%" /><text x="54.166667%" y="18.000000%">0.50</text><line stroke="black" stroke-width="1" x1="40.541667%" x2="34.458333%" y1="28.125000%" y2="43.875000%" /><line stroke="black" stroke-width="1" x1="42.791667%" x2="48.875000%" y1="28.125000%" y2="43.875000%" /><text x="45.833333%" y="36.000000%">0.26</text><line stroke="black" stroke-width="1" x1="57.208333%" x2="51.125000%" y1="28.125000%" y2="43.875000%" /><line stroke="black" stroke-width="1" x1="59.458333%" x2="65.541667%" y1="28.125000%" y2="43.875000%" /><text x="62.500000%" y="36.000000%">0.74</text><line stroke="black" stroke-width="1" x1="32.208333%" x2="26.125000%" y1="46.125000%" y2="61.875000%" /><line stroke="black" stroke-width="1" x1="34.458333%" x2="40.541667%" y1="46.125000%" y2="61.875000%" /><text x="37.500000%" y="54.000000%">0.26</text><line stroke="black" stroke-width="1" x1="48.875000%" x2="42.791667%" y1="46.125000%" y2="61.875000%" /><line stroke="black" stroke-width="1" x1="51.125000%" x2="57.208333%" y1="46.125000%" y2="61.875000%" /><text x="54.166667%" y="54.000000%">0.50</text><line stroke="black" stroke-width="1" x1="65.541667%" x2="59.458333%" y1="46.125000%" y2="61.875000%" /><line stroke="black" stroke-width="1" x1="67.791667%" x2="73.875000%" y1="46.125000%" y2="61.875000%" /><text x="70.833333%" y="54.000000%">0.74</text><line stroke="black" stroke-width="1" x1="23.875000%" x2="17.791667%" y1="64.125000%" y2="79.875000%" /><line stroke="black" stroke-width="1" x1="26.125000%" x2="32.208333%" y1="64.125000%" y2="79.875000%" /><text x="29.166667%" y="72.000000%">0.24</text><line stroke="black" stroke-width="1" x1="40.541667%" x2="34.458333%" y1="64.125000%" y2="79.875000%" /><line stroke="black" stroke-width="1" x1="42.791667%" x2="48.875000%" y1="64.125000%" y2="79.875000%" /><text x="45.833333%" y="72.000000%">0.40</text><line stroke="black" stroke-width="1" x1="57.208333%" x2="51.125000%" y1="64.125000%" y2="79.875000%" /><line stroke="black" stroke-width="1" x1="59.458333%" x2="65.541667%" y1="64.125000%" y2="79.875000%" /><text x="62.500000%" y="72.000000%">0.60</text><line stroke="black" stroke-width="1" x1="73.875000%" x2="67.791667%" y1="64.125000%" y2="79.875000%" /><line stroke="black" stroke-width="1" x1="76.125000%" x2="82.208333%" y1="64.125000%" y2="79.875000%" /><text x="79.166667%" y="72.000000%">0.76</text><line stroke="black" stroke-width="1" x1="15.541667%" x2="9.958333%" y1="82.125000%" y2="88.875000%" /><line stroke="black" stroke-width="1" x1="17.791667%" x2="23.875000%" y1="82.125000%" y2="88.875000%" /><text x="20.833333%" y="85.500000%">0.21</text><line stroke="black" stroke-width="1" x1="32.208333%" x2="26.125000%" y1="82.125000%" y2="88.875000%" /><line stroke="black" stroke-width="1" x1="34.458333%" x2="40.541667%" y1="82.125000%" y2="88.875000%" /><text x="37.500000%" y="85.500000%">0.39</text><line stroke="black" stroke-width="1" x1="48.875000%" x2="42.791667%" y1="82.125000%" y2="88.875000%" /><line stroke="black" stroke-width="1" x1="51.125000%" x2="57.208333%" y1="82.125000%" y2="88.875000%" /><text x="54.166667%" y="85.500000%">0.50</text><line stroke="black" stroke-width="1" x1="65.541667%" x2="59.458333%" y1="82.125000%" y2="88.875000%" /><line stroke="black" stroke-width="1" x1="67.791667%" x2="73.875000%" y1="82.125000%" y2="88.875000%" /><text x="70.833333%" y="85.500000%">0.61</text><line stroke="black" stroke-width="1" x1="82.208333%" x2="76.125000%" y1="82.125000%" y2="88.875000%" /><line stroke="black" stroke-width="1" x1="84.458333%" x2="90.041667%" y1="82.125000%" y2="88.875000%" /><text x="87.250000%" y="85.500000%">0.79</text></svg>