<?xml version="1.0" encoding="utf-8" ?>
<svg baseProfile="full" height="100%" version="1.1" width="100%" xmlns="http://www.w3.org/2000/svg" xmlns:ev="http://www.w3.org/2001/xml-events" xmlns:xlink="http://www.w3.org/1999/xlink"><defs /><circle cx="50.000000%" cy="4.500000%" fill="rgb(66, 206, 183)" r="0.562500%" stroke="black" stroke-width="1" /><circle cx="45.454545%" cy="13.500000%" fill="rgb(66, 206, 183)" r="0.562500%" stroke="black" stroke-width="1" /><circle cx="54.545455%" cy="13.500000%" fill="rgb(66, 206, 183)" r="0.562500%" stroke="black" stroke-width="1" /><circle cx="40.909091%" cy="22.500000%" fill="rgb(66, 206, 183)" r="0.562500%" stroke="black" stroke-width="1" /><circle cx="50.000000%" cy="22.500000%" fill="rgb(66, 206, 183)" r="0.562500%" stroke="black" stroke-width="1" /><circle cx="59.090909%" cy="22.500000%" fill="rgb(66, 206, 183)" r="0.562500%" stroke="black" stroke-width="1" /><circle cx="36.363636%" cy="31.500000%" fill="rgb(66, 206, 183)" r="0.562500%" stroke="black" stroke-width="1" /><circle cx="45.454545%" cy="31.500000%" fill="rgb(66, 206, 183)" r="0.562500%" stroke="black" stroke-width="1" /><circle cx="54.545455%" cy="31.500000%" fill="rgb(66, 206, 183)" r="0.562500%" stroke="black" stroke-width="1" /><circle cx="63.636364%" cy="31.500000%" fill="rgb(66, 206, 183)" r="0.562500%" stroke="black" stroke-width="1" /><circle cx="31.818182%" cy="40.500000%" fill="rgb(66, 206, 183)" r="0.562500%" stroke="black" stroke-width="1" /><circle cx="40.909091%" cy="40.500000%" fill="rgb(66, 206, 183)" r="0.562500%" stroke="black" stroke-width="1" /><circle cx="50.000000%" cy="40.500000%" fill="rgb(66, 206, 183)" r="0.562500%" stroke="black" stroke-width="1" /><circle cx="59.090909%" cy="40.500000%" fill="rgb(66, 206, 183)" r="0.562500%" stroke="black" stroke-width="1" /><circle cx="68.181818%" cy="40.500000%" fill="rgb(66, 206, 183)" r="0.562500%" stroke="black" stroke-width="1" /><circle cx="27.272727%" cy="49.500000%" fill="rgb(66, 206, 183)" r="0.562500%" stroke="black" stroke-width="1" /><circle cx="36.363636%" cy="49.500000%" fill="rgb(66, 206, 183)" r="0.562500%" stroke="black" stroke-width="1" /><circle cx="45.454545%" cy="49.500000%" fill="rgb(66, 206, 183)" r="0.562500%" stroke="black" stroke-width="1" /><circle cx="54.545455%" cy="49.500000%" fill="rgb(66, 206, 183)" r="0.562500%" stroke="black" stroke-width="1" /><circle cx="63.636364%" cy="49.500000%" fill="rgb(66, 206, 183)" r="0.562500%" stroke="black" stroke-width="1" /><circle cx="72.727273%" cy="49.500000%" fill="rgb(66, 206, 183)" r="0.562500%" stroke="black" stroke-width="1" /><circle cx="22.727273%" cy="58.500000%" fill="rgb(66, 206, 183)" r="0.562500%" stroke="black" stroke-width="1" /><circle cx="31.818182%" cy="58.500000%" fill="rgb(66, 206, 183)" r="0.562500%" stroke="black" stroke-width="1" /><circle cx="40.909091%" cy="58.500000%" fill="rgb(66, 206, 183)" r="0.562500%" stroke="black" stroke-width="1" /><circle cx="50.000000%" cy="58.500000%" fill="rgb(66, 206, 183)" r="0.562500%" stroke="black" stroke-width="1" /><circle cx="59.090909%" cy="58.500000%" fill="rgb(66, 206, 183)" r="0.562500%" stroke="black" stroke-width="1" /><circle cx="68.181818%" cy="58.500000%" fill="rgb(66, 206, 183)" r="0.562500%" stroke="black" stroke-width="1" /><circle cx="77.272727%" cy="58.500000%" fill="rgb(66, 206, 183)" r="0.562500%" stroke="black" stroke-width="1" /><circle cx="18.181818%" cy="67.500000%" fill="rgb(66, 206, 183)" r="0.562500%" stroke="black" stroke-width="1" /><circle cx="27.272727%" cy="67.500000%" fill="rgb(66, 206, 183)" r="0.562500%" stroke="black" stroke-width="1" /><circle cx="36.363636%" cy="67.500000%" fill="rgb(66, 206, 183)" r="0.562500%" stroke="black" stroke-width="1" /><circle cx="45.454545%" cy="67.500000%" fill="rgb(66, 206, 183)" r="0.562500%" stroke="black" stroke-width="1" /><circle cx="54.545455%" cy="67.500000%" fill="rgb(66, 206, 183)" r="0.562500%" stroke="black" stroke-width="1" /><circle cx="63.636364%" cy="67.500000%" fill="rgb(66, 206, 183)" r="0.562500%" stroke="black" stroke-width="1" /><circle cx="72.727273%" cy="67.500000%" fill="rgb(66, 206, 183)" r="0.562500%" stroke="black" stroke-width="1" /><circle cx="81.818182%" cy="67.500000%" fill="rgb(66, 206, 183)" r="0.562500%" stroke="black" stroke-width="1" /><circle cx="13.636364%" cy="76.500000%" fill="rgb(66, 206, 183)" r="0.562500%" stroke="black" stroke-width="1" /><circle cx="22.727273%" cy="76.500000%" fill="rgb(66, 206, 183)" r="0.562500%" stroke="black" stroke-width="1" /><circle cx="31.818182%" cy="76.500000%" fill="rgb(66, 206, 183)" r="0.562500%" stroke="black" stroke-width="1" /><circle cx="40.909091%" cy="76.500000%" fill="rgb(66, 206, 183)" r="0.562500%" stroke="black" stroke-width="1" /><circle cx="50.000000%" cy="76.500000%" fill="rgb(66, 206, 183)" r="0.562500%" stroke="black" stroke-width="1" /><circle cx="59.090909%" cy="76.500000%" fill="rgb(66, 206, 183)" r="0.562500%" stroke="black" stroke-width="1" /><circle cx="68.181818%" cy="76.500000%" fill="rgb(66, 206, 183)" r="0.562500%" stroke="black" stroke-width="1" /><circle cx="77.272727%" cy="76.500000%" fill="rgb(66, 206, 183)" r="0.562500%" stroke="black" stroke-width="1" /><circle cx="86.363636%" cy="76.500000%" fill="rgb(66, 206, 183)" r="0.562500%" stroke="black" stroke-width="1" /><circle cx="9.090909%" cy="85.500000%" fill="rgb(66, 206, 183)" r="0.562500%" stroke="black" stroke-width="1" /><circle cx="18.181818%" cy="85.500000%" fill="rgb(66, 206, 183)" r="0.562500%" stroke="black" stroke-width="1" /><circle cx="27.272727%" cy="85.500000%" fill="rgb(66, 206, 183)" r="0.562500%" stroke="black" stroke-width="1" /><circle cx="36.363636%" cy="85.500000%" fill="rgb(66, 206, 183)" r="0.562500%" stroke="black" stroke-width="1" /><circle cx="45.454545%" cy="85.500000%" fill="rgb(66, 206, 183)" r="0.562500%" stroke="black" stroke-width="1" /><circle cx="54.545455%" cy="85.500000%" fill="rgb(66, 206, 183)" r="0.562500%" stroke="black" stroke-width="1" /><circle cx="63.636364%" cy="85.500000%" fill="rgb(66, 206, 183)" r="0.562500%" stroke="black" stroke-width="1" /><circle cx="72.727273%" cy="85.500000%" fill="rgb(66, 206, 183)" r="0.562500%" stroke="black" stroke-width="1" /><circle cx="81.818182%" cy="85.500000%" fill="rgb(66, 206, 183)" r="0.562500%" stroke="black" stroke-width="1" /><circle cx="90.909091%" cy="85.500000%" fill="rgb(66, 206, 183)" r="0.562500%" stroke="black" stroke-width="1" /><line stroke="black" stroke-width="1" x1="1.000000%" x2="1.000000%" y1="88.312500%" y2="100.000000%" /><line stroke="black" stroke-width="1" x1="9.090909%" x2="9.090909%" y1="88.312500%" y2="100.000000%" /><text style="font-size:100%" x="2.772727%" y="95.000000%">0.1%</text><line stroke="black" stroke-width="1" x1="9.090909%" x2="9.090909%" y1="88.312500%" y2="100.000000%" /><line stroke="black" stroke-width="1" x1="18.181818%" x2="18.181818%" y1="88.312500%" y2="100.000000%" /><text style="font-size:100%" x="11.363636%" y="95.000000%">1.0%</text><line stroke="black" stroke-width="1" x1="18.181818%" x2="18.181818%" y1="88.312500%" y2="100.000000%" /><line stroke="black" stroke-width="1" x1="27.272727%" x2="27.272727%" y1="88.312500%" y2="100.000000%" /><text style="font-size:100%" x="20.454545%" y="95.000000%">4.4%</text><line stroke="black" stroke-width="1" x1="27.272727%" x2="27.272727%" y1="88.312500%" y2="100.000000%" /><line stroke="black" stroke-width="1" x1="36.363636%" x2="36.363636%" y1="88.312500%" y2="100.000000%" /><text style="font-size:100%" x="29.545455%" y="95.000000%">11.7%</text><line stroke="black" stroke-width="1" x1="36.363636%" x2="36.363636%" y1="88.312500%" y2="100.000000%" /><line stroke="black" stroke-width="1" x1="45.454545%" x2="45.454545%" y1="88.312500%" y2="100.000000%" /><text style="font-size:100%" x="38.636364%" y="95.000000%">20.5%</text><line stroke="black" stroke-width="1" x1="45.454545%" x2="45.454545%" y1="88.312500%" y2="100.000000%" /><line stroke="black" stroke-width="1" x1="54.545455%" x2="54.545455%" y1="88.312500%" y2="100.000000%" /><text style="font-size:100%" x="47.727273%" y="95.000000%">24.6%</text><line stroke="black" stroke-width="1" x1="54.545455%" x2="54.545455%" y1="88.312500%" y2="100.000000%" /><line stroke="black" stroke-width="1" x1="63.636364%" x2="63.636364%" y1="88.312500%" y2="100.000000%" /><text style="font-size:100%" x="56.818182%" y="95.000000%">20.5%</text><line stroke="black" stroke-width="1" x1="63.636364%" x2="63.636364%" y1="88.312500%" y2="100.000000%" /><line stroke="black" stroke-width="1" x1="72.727273%" x2="72.727273%" y1="88.312500%" y2="100.000000%" /><text style="font-size:100%" x="65.909091%" y="95.000000%">11.7%</text><line stroke="black" stroke-width="1" x1="72.727273%" x2="72.727273%" y1="88.312500%" y2="100.000000%" /><line stroke="black" stroke-width="1" x1="81.818182%" x2="81.818182%" y1="88.312500%" y2="100.000000%" /><text style="font-size:100%" x="75.000000%" y="95.000000%">4.4%</text><line stroke="black" stroke-width="1" x1="81.818182%" x2="81.818182%" y1="88.312500%" y2="100.000000%" /><line stroke="black" stroke-width="1" x1="90.909091%" x2="90.909091%" y1="88.312500%" y2="100.000000%" /><text style="font-size:100%" x="84.090909%" y="95.000000%">1.0%</text><line stroke="black" stroke-width="1" x1="90.909091%" x2="90.909091%" y1="88.312500%" y2="100.000000%" /><line stroke="black" stroke-width="1" x1="99.000000%" x2="99.000000%" y1="88.312500%" y2="100.000000%" /><text style="font-size:100%" x="92.681818%" y="95.000000%">0.1%</text><line stroke="black" stroke-width="1" x1="49.437500%" x2="46.017045%" y1="5.062500%" y2="12.937500%" /><line stroke="black" stroke-width="1" x1="50.562500%" x2="53.982955%" y1="5.062500%" y2="12.937500%" /><line stroke="black" stroke-width="1" x1="44.892045%" x2="41.471591%" y1="14.062500%" y2="21.937500%" /><line stroke="black" stroke-width="1" x1="46.017045%" x2="49.437500%" y1="14.062500%" y2="21.937500%" /><line stroke="black" stroke-width="1" x1="53.982955%" x2="50.562500%" y1="14.062500%" y2="21.937500%" /><line stroke="black" stroke-width="1" x1="55.107955%" x2="58.528409%" y1="14.062500%" y2="21.937500%" /><line stroke="black" stroke-width="1" x1="40.346591%" x2="36.926136%" y1="23.062500%" y2="30.937500%" /><line stroke="black" stroke-width="1" x1="41.471591%" x2="44.892045%" y1="23.062500%" y2="30.937500%" /><line stroke="black" stroke-width="1" x1="49.437500%" x2="46.017045%" y1="23.062500%" y2="30.937500%" /><line stroke="black" stroke-width="1" x1="50.562500%" x2="53.982955%" y1="23.062500%" y2="30.937500%" /><line stroke="black" stroke-width="1" x1="58.528409%" x2="55.107955%" y1="23.062500%" y2="30.937500%" /><line stroke="black" stroke-width="1" x1="59.653409%" x2="63.073864%" y1="23.062500%" y2="30.937500%" /><line stroke="black" stroke-width="1" x1="35.801136%" x2="32.380682%" y1="32.062500%" y2="39.937500%" /><line stroke="black" stroke-width="1" x1="36.926136%" x2="40.346591%" y1="32.062500%" y2="39.937500%" /><line stroke="black" stroke-width="1" x1="44.892045%" x2="41.471591%" y1="32.062500%" y2="39.937500%" /><line stroke="black" stroke-width="1" x1="46.017045%" x2="49.437500%" y1="32.062500%" y2="39.937500%" /><line stroke="black" stroke-width="1" x1="53.982955%" x2="50.562500%" y1="32.062500%" y2="39.937500%" /><line stroke="black" stroke-width="1" x1="55.107955%" x2="58.528409%" y1="32.062500%" y2="39.937500%" /><line stroke="black" stroke-width="1" x1="63.073864%" x2="59.653409%" y1="32.062500%" y2="39.937500%" /><line stroke="black" stroke-width="1" x1="64.198864%" x2="67.619318%" y1="32.062500%" y2="39.937500%" /><line stroke="black" stroke-width="1" x1="31.255682%" x2="27.835227%" y1="41.062500%" y2="48.937500%" /><line stroke="black" stroke-width="1" x1="32.380682%" x2="35.801136%" y1="41.062500%" y2="48.937500%" /><line stroke="black" stroke-width="1" x1="40.346591%" x2="36.926136%" y1="41.062500%" y2="48.937500%" /><line stroke="black" stroke-width="1" x1="41.471591%" x2="44.892045%" y1="41.062500%" y2="48.937500%" /><line stroke="black" stroke-width="1" x1="49.437500%" x2="46.017045%" y1="41.062500%" y2="48.937500%" /><line stroke="black" stroke-width="1" x1="50.562500%" x2="53.982955%" y1="41.062500%" y2="48.937500%" /><line stroke="black" stroke-width="1" x1="58.528409%" x2="55.107955%" y1="41.062500%" y2="48.937500%" /><line stroke="black" stroke-width="1" x1="59.653409%" x2="63.073864%" y1="41.062500%" y2="48.937500%" /><line stroke="black" stroke-width="1" x1="67.619318%" x2="64.198864%" y1="41.062500%" y2="48.937500%" /><line stroke="black" stroke-width="1" x1="68.744318%" x2="72.164773%" y1="41.062500%" y2="48.937500%" /><line stroke="black" stroke-width="1" x1="26.710227%" x2="23.289773%" y1="50.062500%" y2="57.937500%" /><line stroke="black" stroke-width="1" x1="27.835227%" x2="31.255682%" y1="50.062500%" y2="57.937500%" /><line stroke="black" stroke-width="1" x1="35.801136%" x2="32.380682%" y1="50.062500%" y2="57.937500%" /><line stroke="black" stroke-width="1" x1="36.926136%" x2="40.346591%" y1="50.062500%" y2="57.937500%" /><line stroke="black" stroke-width="1" x1="44.892045%" x2="41.471591%" y1="50.062500%" y2="57.937500%" /><line stroke="black" stroke-width="1" x1="46.017045%" x2="49.437500%" y1="50.062500%" y2="57.937500%" /><line stroke="black" stroke-width="1" x1="53.982955%" x2="50.562500%" y1="50.062500%" y2="57.937500%" /><line stroke="black" stroke-width="1" x1="55.107955%" x2="58.528409%" y1="50.062500%" y2="57.937500%" /><line stroke="black" stroke-width="1" x1="63.073864%" x2="59.653409%" y1="50.062500%" y2="57.937500%" /><line stroke="black" stroke-width="1" x1="64.198864%" x2="67.619318%" y1="50.062500%" y2="57.937500%" /><line stroke="black" stroke-width="1" x1="72.164773%" x2="68.744318%" y1="50.062500%" y2="57.937500%" /><line stroke="black" stroke-width="1" x1="73.289773%" x2="76.710227%" y1="50.062500%" y2="57.937500%" /><line stroke="black" stroke-width="1" x1="22.164773%" x2="18.744318%" y1="59.062500%" y2="66.937500%" /><line stroke="black" stroke-width="1" x1="23.289773%" x2="26.710227%" y1="59.062500%" y2="66.937500%" /><line stroke="black" stroke-width="1" x1="31.255682%" x2="27.835227%" y1="59.062500%" y2="66.937500%" /><line stroke="black" stroke-width="1" x1="32.380682%" x2="35.801136%" y1="59.062500%" y2="66.937500%" /><line stroke="black" stroke-width="1" x1="40.346591%" x2="36.926136%" y1="59.062500%" y2="66.937500%" /><line stroke="black" stroke-width="1" x1="41.471591%" x2="44.892045%" y1="59.062500%" y2="66.937500%" /><line stroke="black" stroke-width="1" x1="49.437500%" x2="46.017045%" y1="59.062500%" y2="66.937500%" /><line stroke="black" stroke-width="1" x1="50.562500%" x2="53.982955%" y1="59.062500%" y2="66.937500%" /><line stroke="black" stroke-width="1" x1="58.528409%" x2="55.107955%" y1="59.062500%" y2="66.937500%" /><line stroke="black" stroke-width="1" x1="59.653409%" x2="63.073864%" y1="59.062500%" y2="66.937500%" /><line stroke="black" stroke-width="1" x1="67.619318%" x2="64.198864%" y1="59.062500%" y2="66.937500%" /><line stroke="black" stroke-width="1" x1="68.744318%" x2="72.164773%" y1="59.062500%" y2="66.937500%" /><line stroke="black" stroke-width="1" x1="76.710227%" x2="73.289773%" y1="59.062500%" y2="66.937500%" /><line stroke="black" stroke-width="1" x1="77.835227%" x2="81.255682%" y1="59.062500%" y2="66.937500%" /><line stroke="black" stroke-width="1" x1="17.619318%" x2="14.198864%" y1="68.062500%" y2="75.937500%" /><line stroke="black" stroke-width="1" x1="18.744318%" x2="22.164773%" y1="68.062500%" y2="75.937500%" /><line stroke="black" stroke-width="1" x1="26.710227%" x2="23.289773%" y1="68.062500%" y2="75.937500%" /><line stroke="black" stroke-width="1" x1="27.835227%" x2="31.255682%" y1="68.062500%" y2="75.937500%" /><line stroke="black" stroke-width="1" x1="35.801136%" x2="32.380682%" y1="68.062500%" y2="75.937500%" /><line stroke="black" stroke-width="1" x1="36.926136%" x2="40.346591%" y1="68.062500%" y2="75.937500%" /><line stroke="black" stroke-width="1" x1="44.892045%" x2="41.471591%" y1="68.062500%" y2="75.937500%" /><line stroke="black" stroke-width="1" x1="46.017045%" x2="49.437500%" y1="68.062500%" y2="75.937500%" /><line stroke="black" stroke-width="1" x1="53.982955%" x2="50.562500%" y1="68.062500%" y2="75.937500%" /><line stroke="black" stroke-width="1" x1="55.107955%" x2="58.528409%" y1="68.062500%" y2="75.937500%" /><line stroke="black" stroke-width="1" x1="63.073864%" x2="59.653409%" y1="68.062500%" y2="75.937500%" /><line stroke="black" stroke-width="1" x1="64.198864%" x2="67.619318%" y1="68.062500%" y2="75.937500%" /><line stroke="black" stroke-width="1" x1="72.164773%" x2="68.744318%" y1="68.062500%" y2="75.937500%" /><line stroke="black" stroke-width="1" x1="73.289773%" x2="76.710227%" y1="68.062500%" y2="75.937500%" /><line stroke="black" stroke-width="1" x1="81.255682%" x2="77.835227%" y1="68.062500%" y2="75.937500%" /><line stroke="black" stroke-width="1" x1="82.380682%" x2="85.801136%" y1="68.062500%" y2="75.937500%" /><line stroke="black" stroke-width="1" x1="13.073864%" x2="9.653409%" y1="77.062500%" y2="84.937500%" /><line stroke="black" stroke-width="1" x1="14.198864%" x2="17.619318%" y1="77.062500%" y2="84.937500%" /><line stroke="black" stroke-width="1" x1="22.164773%" x2="18.744318%" y1="77.062500%" y2="84.937500%" /><line stroke="black" stroke-width="1" x1="23.289773%" x2="26.710227%" y1="77.062500%" y2="84.937500%" /><line stroke="black" stroke-width="1" x1="31.255682%" x2="27.835227%" y1="77.062500%" y2="84.937500%" /><line stroke="black" stroke-width="1" x1="32.380682%" x2="35.801136%" y1="77.062500%" y2="84.937500%" /><line stroke="black" stroke-width="1" x1="40.346591%" x2="36.926136%" y1="77.062500%" y2="84.937500%" /><line stroke="black" stroke-width="1" x1="41.471591%" x2="44.892045%" y1="77.062500%" y2="84.937500%" /><line stroke="black" stroke-width="1" x1="49.437500%" x2="46.017045%" y1="77.062500%" y2="84.937500%" /><line stroke="black" stroke-width="1" x1="50.562500%" x2="53.982955%" y1="77.062500%" y2="84.937500%" /><line stroke="black" stroke-width="1" x1="58.528409%" x2="55.107955%" y1="77.062500%" y2="84.937500%" /><line stroke="black" stroke-width="1" x1="59.653409%" x2="63.073864%" y1="77.062500%" y2="84.937500%" /><line stroke="black" stroke-width="1" x1="67.619318%" x2="64.198864%" y1="77.062500%" y2="84.937500%" /><line stroke="black" stroke-width="1" x1="68.744318%" x2="72.164773%" y1="77.062500%" y2="84.937500%" /><line stroke="black" stroke-width="1" x1="76.710227%" x2="73.289773%" y1="77.062500%" y2="84.937500%" /><line stroke="black" stroke-width="1" x1="77.835227%" x2="81.255682%" y1="77.062500%" y2="84.937500%" /><line stroke="black" stroke-width="1" x1="85.801136%" x2="82.380682%" y1="77.062500%" y2="84.937500%" /><line stroke="black" stroke-width="1" x1="86.926136%" x2="90.346591%" y1="77.062500%" y2="84.937500%" /><line stroke="black" stroke-width="1" x1="8.528409%" x2="5.607955%" y1="86.062500%" y2="89.437500%" /><line stroke="black" stroke-width="1" x1="9.653409%" x2="13.073864%" y1="86.062500%" y2="89.437500%" /><line stroke="black" stroke-width="1" x1="17.619318%" x2="14.198864%" y1="86.062500%" y2="89.437500%" /><line stroke="black" stroke-width="1" x1="18.744318%" x2="22.164773%" y1="86.062500%" y2="89.437500%" /><line stroke="black" stroke-width="1" x1="26.710227%" x2="23.289773%" y1="86.062500%" y2="89.437500%" /><line stroke="black" stroke-width="1" x1="27.835227%" x2="31.255682%" y1="86.062500%" y2="89.437500%" /><line stroke="black" stroke-width="1" x1="35.801136%" x2="32.380682%" y1="86.062500%" y2="89.437500%" /><line stroke="black" stroke-width="1" x1="36.926136%" x2="40.346591%" y1="86.062500%" y2="89.437500%" /><line stroke="black" stroke-width="1" x1="44.892045%" x2="41.471591%" y1="86.062500%" y2="89.437500%" /><line stroke="black" stroke-width="1" x1="46.017045%" x2="49.437500%" y1="86.062500%" y2="89.437500%" /><line stroke="black" stroke-width="1" x1="53.982955%" x2="50.562500%" y1="86.062500%" y2="89.437500%" /><line stroke="black" stroke-width="1" x1="55.107955%" x2="58.528409%" y1="86.062500%" y2="89.437500%" /><line stroke="black" stroke-width="1" x1="63.073864%" x2="59.653409%" y1="86.062500%" y2="89.437500%" /><line stroke="black" stroke-width="1" x1="64.198864%" x2="67.619318%" y1="86.062500%" y2="89.437500%" /><line stroke="black" stroke-width="1" x1="72.164773%" x2="68.744318%" y1="86.062500%" y2="89.437500%" /><line stroke="black" stroke-width="1" x1="73.289773%" x2="76.710227%" y1="86.062500%" y2="89.437500%" /><line stroke="black" stroke-width="1" x1="81.255682%" x2="77.835227%" y1="86.062500%" y2="89.437500%" /><line stroke="black" stroke-width="1" x1="82.380682%" x2="85.801136%" y1="86.062500%" y2="89.437500%" /><line stroke="black" stroke-width="1" x1="90.346591%" x2="86.926136%" y1="86.062500%" y2="89.437500%" /><line stroke="black" stroke-width="1" x1="91.471591%" x2="94.392045%" y1="86.062500%" y2="89.437500%" /></svg>